<mxfile host="app.diagrams.net" modified="2023-12-22T02:56:11.557Z" agent="Mozilla/5.0 (Windows NT 10.0; Win64; x64) AppleWebKit/537.36 (KHTML, like Gecko) Chrome/120.0.0.0 Safari/537.36" etag="54It9aZUGrk7VyLAdgVB" version="22.1.11" type="device">
  <diagram name="Page-1" id="FtBwAMUp99WIAUgyGQmu">
    <mxGraphModel dx="1100" dy="533" grid="1" gridSize="10" guides="1" tooltips="1" connect="1" arrows="1" fold="1" page="1" pageScale="1" pageWidth="850" pageHeight="1100" math="0" shadow="0">
      <root>
        <mxCell id="0" />
        <mxCell id="1" parent="0" />
        <mxCell id="YSrua-VZKY9DJ4Y7joD3-1" value="" style="rounded=0;whiteSpace=wrap;html=1;" vertex="1" parent="1">
          <mxGeometry x="350" y="40" width="130" height="40" as="geometry" />
        </mxCell>
        <mxCell id="YSrua-VZKY9DJ4Y7joD3-6" style="edgeStyle=orthogonalEdgeStyle;rounded=0;orthogonalLoop=1;jettySize=auto;html=1;entryX=0.5;entryY=0;entryDx=0;entryDy=0;" edge="1" parent="1" source="YSrua-VZKY9DJ4Y7joD3-2" target="YSrua-VZKY9DJ4Y7joD3-5">
          <mxGeometry relative="1" as="geometry" />
        </mxCell>
        <mxCell id="YSrua-VZKY9DJ4Y7joD3-2" value="Bingo App" style="text;html=1;strokeColor=none;fillColor=none;align=center;verticalAlign=middle;whiteSpace=wrap;rounded=0;" vertex="1" parent="1">
          <mxGeometry x="365" y="32.5" width="100" height="55" as="geometry" />
        </mxCell>
        <mxCell id="YSrua-VZKY9DJ4Y7joD3-4" value="" style="rounded=0;whiteSpace=wrap;html=1;" vertex="1" parent="1">
          <mxGeometry x="320" y="130" width="190" height="40" as="geometry" />
        </mxCell>
        <mxCell id="YSrua-VZKY9DJ4Y7joD3-13" style="edgeStyle=orthogonalEdgeStyle;rounded=0;orthogonalLoop=1;jettySize=auto;html=1;entryX=0.5;entryY=0;entryDx=0;entryDy=0;" edge="1" parent="1" source="YSrua-VZKY9DJ4Y7joD3-5" target="YSrua-VZKY9DJ4Y7joD3-9">
          <mxGeometry relative="1" as="geometry" />
        </mxCell>
        <mxCell id="YSrua-VZKY9DJ4Y7joD3-5" value="-&amp;nbsp; Bingo_Letters&lt;br&gt;+ bingoButtons: List&amp;lt;JButton&amp;gt;" style="text;html=1;strokeColor=none;fillColor=none;align=left;verticalAlign=middle;whiteSpace=wrap;rounded=0;" vertex="1" parent="1">
          <mxGeometry x="330" y="122.5" width="170" height="55" as="geometry" />
        </mxCell>
        <mxCell id="YSrua-VZKY9DJ4Y7joD3-18" style="edgeStyle=orthogonalEdgeStyle;rounded=0;orthogonalLoop=1;jettySize=auto;html=1;exitX=0.5;exitY=1;exitDx=0;exitDy=0;entryX=0.5;entryY=0;entryDx=0;entryDy=0;" edge="1" parent="1" source="YSrua-VZKY9DJ4Y7joD3-7" target="YSrua-VZKY9DJ4Y7joD3-16">
          <mxGeometry relative="1" as="geometry">
            <Array as="points">
              <mxPoint x="415" y="325" />
              <mxPoint x="315" y="325" />
            </Array>
          </mxGeometry>
        </mxCell>
        <mxCell id="YSrua-VZKY9DJ4Y7joD3-7" value="" style="rounded=0;whiteSpace=wrap;html=1;" vertex="1" parent="1">
          <mxGeometry x="320" y="220" width="190" height="70" as="geometry" />
        </mxCell>
        <mxCell id="YSrua-VZKY9DJ4Y7joD3-19" style="edgeStyle=orthogonalEdgeStyle;rounded=0;orthogonalLoop=1;jettySize=auto;html=1;exitX=0.5;exitY=1;exitDx=0;exitDy=0;" edge="1" parent="1" source="YSrua-VZKY9DJ4Y7joD3-9" target="YSrua-VZKY9DJ4Y7joD3-17">
          <mxGeometry relative="1" as="geometry" />
        </mxCell>
        <mxCell id="YSrua-VZKY9DJ4Y7joD3-9" value="+ Initialize BingoButtons()&lt;br&gt;+ generateNumbersInRange:&amp;nbsp; &amp;nbsp; &amp;nbsp; &amp;nbsp; &amp;nbsp;List&amp;lt;Integer&amp;gt;&lt;br&gt;+ main(args: String[])" style="text;html=1;strokeColor=none;fillColor=none;align=left;verticalAlign=middle;whiteSpace=wrap;rounded=0;" vertex="1" parent="1">
          <mxGeometry x="325" y="220" width="180" height="65" as="geometry" />
        </mxCell>
        <mxCell id="YSrua-VZKY9DJ4Y7joD3-25" style="edgeStyle=orthogonalEdgeStyle;rounded=0;orthogonalLoop=1;jettySize=auto;html=1;exitX=0.5;exitY=1;exitDx=0;exitDy=0;entryX=0.5;entryY=0;entryDx=0;entryDy=0;" edge="1" parent="1" source="YSrua-VZKY9DJ4Y7joD3-16" target="YSrua-VZKY9DJ4Y7joD3-23">
          <mxGeometry relative="1" as="geometry" />
        </mxCell>
        <mxCell id="YSrua-VZKY9DJ4Y7joD3-16" value="" style="rounded=0;whiteSpace=wrap;html=1;" vertex="1" parent="1">
          <mxGeometry x="250" y="360" width="130" height="40" as="geometry" />
        </mxCell>
        <mxCell id="YSrua-VZKY9DJ4Y7joD3-26" style="edgeStyle=orthogonalEdgeStyle;rounded=0;orthogonalLoop=1;jettySize=auto;html=1;exitX=0.5;exitY=1;exitDx=0;exitDy=0;entryX=0.5;entryY=0;entryDx=0;entryDy=0;" edge="1" parent="1" source="YSrua-VZKY9DJ4Y7joD3-17" target="YSrua-VZKY9DJ4Y7joD3-24">
          <mxGeometry relative="1" as="geometry" />
        </mxCell>
        <mxCell id="YSrua-VZKY9DJ4Y7joD3-17" value="" style="rounded=0;whiteSpace=wrap;html=1;" vertex="1" parent="1">
          <mxGeometry x="460" y="360" width="130" height="40" as="geometry" />
        </mxCell>
        <mxCell id="YSrua-VZKY9DJ4Y7joD3-20" value="Free Button" style="text;html=1;strokeColor=none;fillColor=none;align=center;verticalAlign=middle;whiteSpace=wrap;rounded=0;" vertex="1" parent="1">
          <mxGeometry x="272.5" y="365" width="85" height="30" as="geometry" />
        </mxCell>
        <mxCell id="YSrua-VZKY9DJ4Y7joD3-21" value="BingoButtonListener" style="text;html=1;strokeColor=none;fillColor=none;align=center;verticalAlign=middle;whiteSpace=wrap;rounded=0;" vertex="1" parent="1">
          <mxGeometry x="495" y="365" width="60" height="30" as="geometry" />
        </mxCell>
        <mxCell id="YSrua-VZKY9DJ4Y7joD3-23" value="" style="rounded=0;whiteSpace=wrap;html=1;" vertex="1" parent="1">
          <mxGeometry x="220" y="440" width="190" height="40" as="geometry" />
        </mxCell>
        <mxCell id="YSrua-VZKY9DJ4Y7joD3-24" value="" style="rounded=0;whiteSpace=wrap;html=1;" vertex="1" parent="1">
          <mxGeometry x="430" y="440" width="190" height="40" as="geometry" />
        </mxCell>
        <mxCell id="YSrua-VZKY9DJ4Y7joD3-27" value=" + FreeButton(text: String)" style="text;html=1;strokeColor=none;fillColor=none;align=center;verticalAlign=middle;whiteSpace=wrap;rounded=0;" vertex="1" parent="1">
          <mxGeometry x="240" y="445" width="150" height="30" as="geometry" />
        </mxCell>
        <mxCell id="YSrua-VZKY9DJ4Y7joD3-28" value="&amp;nbsp; &amp;nbsp; &amp;nbsp;+ actionPerformed&lt;br&gt;&amp;nbsp; &amp;nbsp; &amp;nbsp; &amp;nbsp; (e: ActionEvent): void" style="text;html=1;strokeColor=none;fillColor=none;align=left;verticalAlign=middle;whiteSpace=wrap;rounded=0;" vertex="1" parent="1">
          <mxGeometry x="450" y="445" width="200" height="30" as="geometry" />
        </mxCell>
      </root>
    </mxGraphModel>
  </diagram>
</mxfile>
